<svg xmlns="http://www.w3.org/2000/svg" width="37.191" height="38.714" viewBox="0 0 37.191 38.714"><g transform="translate(-30.582 -21.351)"><path d="M196.981,53.045h-.825a.456.456,0,1,1-.912,0h-.825a1.281,1.281,0,0,0,2.562,0Zm1.676,5.551a2.566,2.566,0,0,1-2.3-1.453l-.744.355a3.378,3.378,0,0,0,6.1,0l-.744-.356A2.568,2.568,0,0,1,198.657,58.6Zm2.957-4.27a1.283,1.283,0,0,0,1.281-1.281h-.825a.456.456,0,0,1-.912,0h-.825A1.283,1.283,0,0,0,201.614,54.326Zm11.547-17.793v3.858a1.212,1.212,0,1,0,.825,1.148V37.925a1.426,1.426,0,0,0,.61.136.611.611,0,0,1,.61.61v.822h.825v-.822a1.437,1.437,0,0,0-1.435-1.435.611.611,0,0,1-.61-.61v-.093Zm-.387,5.393a.387.387,0,1,1,.387-.387A.388.388,0,0,1,212.773,41.926Z" transform="translate(-150.322 -13.93)" fill="#262040"/><path d="M67.773,25.872a4.522,4.522,0,0,0-8.825-1.388l.785.253a3.7,3.7,0,1,1-.178,1.135H58.73a4.521,4.521,0,0,0,9.043,0ZM66.089,59.24H59.479V56.157a6.426,6.426,0,0,0-.346-2.074,5.821,5.821,0,0,0-.564-8.6,1.963,1.963,0,0,1-.749-1.542V42.73h1.508a1.48,1.48,0,0,0,.667-.159v.537h.825V40.943h1.292V38.57h.628v-.825h-.628V35.306H60.82v-2.1h-.825v.537a1.479,1.479,0,0,0-.445-.141A11.175,11.175,0,0,0,48.395,22.777h-.123A11.161,11.161,0,0,0,37.116,33.6a1.478,1.478,0,0,0-.445.141v-.537h-.825v2.164H34.553v2.373h-.628v.825h.628v2.439h1.292v2.1h.825v-.537a1.479,1.479,0,0,0,.667.159h1.514V43.9a1.965,1.965,0,0,1-.764,1.555,5.817,5.817,0,0,0-.563,8.677,6.426,6.426,0,0,0-.332,2.03V59.24h-6.61v.825H66.089V59.24Zm-4.8-23.109v3.987H60.82V36.131Zm-1.292-1.054v6.161a.668.668,0,0,1-.667.667H57.819V40.532h.953v-.825h-.953V38.57h.953v-.825h-.953V36.608h.953v-.825h-.953V34.41h1.508A.668.668,0,0,1,59.995,35.077ZM40.963,26.629A10.268,10.268,0,0,1,48.272,23.6h.123a10.349,10.349,0,0,1,10.329,9.983h-.918a9.57,9.57,0,0,0-2.847-6.32,9.453,9.453,0,0,0-16.1,6.32h-.918A10.264,10.264,0,0,1,40.963,26.629ZM35.378,40.184V36.2h.467v3.987ZM37.337,41.9a.668.668,0,0,1-.667-.667V35.077a.668.668,0,0,1,.667-.667h1.51v1.373h-.954v.825h.954v1.137h-.954v.825h.954v1.137h-.954v.825h.954V41.9Zm-.667,8.136A4.965,4.965,0,0,1,38.595,46.1,2.784,2.784,0,0,0,39.676,43.9v-9.9a8.617,8.617,0,0,1,14.7-6.143,8.75,8.75,0,0,1,2.616,6.155V42.73h0v1.211a2.784,2.784,0,0,0,1.06,2.188,5,5,0,0,1,.724,7.116,6.392,6.392,0,0,0-3.426-3.085c.05-.227.1-.455.133-.682a12.922,12.922,0,0,0,.176-2.121V40.785c0-.011,0-.021,0-.032h0V39.329a6.653,6.653,0,0,0-4.669-6.372l-.248.787a5.831,5.831,0,0,1,4.092,5.585v1.44a6.53,6.53,0,0,1-13.06-.016h0V39.52A5.575,5.575,0,0,1,44.953,34.5l.054-.025a6.4,6.4,0,0,0,3.711-5.8v-.827h-.825v.827A5.572,5.572,0,0,1,44.719,33.7l-.058.027a6.4,6.4,0,0,0-3.711,5.8v7.532a10.2,10.2,0,0,0,.471,3.068,6.408,6.408,0,0,0-3.551,3.166A5.007,5.007,0,0,1,36.67,50.041Zm5.543-.153a9.379,9.379,0,0,1-.439-2.836V44.134a7.4,7.4,0,0,0,1.432,1.915v.975a10.2,10.2,0,0,0,.327,2.563ZM52.32,49.4l-1.3-.295V47.589a7.348,7.348,0,0,0,1.607-.888v.323A9.374,9.374,0,0,1,52.32,49.4ZM50.2,49.241a3.065,3.065,0,0,1-3.719,0V47.878a7.375,7.375,0,0,0,3.719-.016Zm-4.544-.132-1.311.3a9.376,9.376,0,0,1-.307-2.381v-.289a7.352,7.352,0,0,0,1.618.876Zm.308.776a3.887,3.887,0,0,0,4.752,0l1.107.251a4.958,4.958,0,0,1-6.966,0Zm7.493-2.859V46a7.4,7.4,0,0,0,1.384-1.868v3.221a12.1,12.1,0,0,1-.164,1.985c-.032.19-.069.381-.11.572l-.088-.022-1.349-.306A10.2,10.2,0,0,0,53.452,47.025ZM51.424,59.24V57.92h5.569v1.32Zm6.394,0V57.1H50.6V59.24H38.017V56.157A5.571,5.571,0,0,1,42.379,50.7l1.544-.35a5.786,5.786,0,0,0,8.825,0l1.543.35a5.571,5.571,0,0,1,4.362,5.462V59.24Z" fill="#262040"/></g></svg>