<svg xmlns="http://www.w3.org/2000/svg" width="31.493" height="29.25" viewBox="0 0 31.493 29.25"><path d="M30.094,18.914a3.647,3.647,0,0,0-3.4,2.32h-2.9L21.586,15.56A1.4,1.4,0,0,0,20.25,14.6h-.028a1.4,1.4,0,0,0-1.322,1.02l-2.362,9.52L12.635,4.62A1.453,1.453,0,0,0,11.25,3.375,1.39,1.39,0,0,0,9.886,4.514L6.349,21.234H2.25v2.813h5.2a1.4,1.4,0,0,0,1.364-1.069l2.159-11.292,3.8,19.835a1.353,1.353,0,0,0,1.308,1.1h.084a1.343,1.343,0,0,0,1.35-.949l2.827-11.454,1.09,2.862a1.4,1.4,0,0,0,1.336.963H26.74a3.647,3.647,0,0,0,3.347,2.18,3.577,3.577,0,0,0,2.588-1.111A3.74,3.74,0,0,0,33.743,22.5,3.571,3.571,0,0,0,30.094,18.914Z" transform="translate(-2.25 -3.375)" fill="#262141"/></svg>