<svg width="24" height="22" viewBox="0 0 24 22" fill="none" xmlns="http://www.w3.org/2000/svg">
<path d="M23.1677 13.6008V21.8067H18.4108V14.1516C18.4108 12.2288 17.7248 10.9157 16.0011 10.9157C14.6881 10.9157 13.9067 11.8009 13.562 12.6567C13.4356 12.9616 13.4044 13.386 13.4044 13.8157V21.8067H8.64577C8.64577 21.8067 8.70986 8.84045 8.64577 7.49815H13.4044V9.52645C13.3958 9.54205 13.3819 9.55742 13.3732 9.57302H13.4044V9.52645C14.0367 8.55306 15.1644 7.16188 17.6918 7.16188C20.8222 7.16188 23.1677 9.20769 23.1677 13.6008ZM3.67064 0.601562C2.04222 0.601562 0.978638 1.6704 0.978638 3.0736C0.978638 4.44727 2.0111 5.54541 3.60831 5.54541H3.63776C5.29731 5.54541 6.32977 4.44735 6.32977 3.0736C6.29856 1.67048 5.29731 0.601562 3.67064 0.601562ZM1.26101 21.8067H6.01618V7.49815H1.26101V21.8067Z" fill="#000080"/>
</svg>
