<svg xmlns="http://www.w3.org/2000/svg" xmlns:xlink="http://www.w3.org/1999/xlink" width="78" height="132" viewBox="0 0 78 132"><defs><clipPath id="a"><rect width="78" height="132" fill="none"/></clipPath></defs><g clip-path="url(#a)"><g transform="translate(-396 -950)"><circle cx="5" cy="5" r="5" transform="translate(396 950)" fill="#fff"/><circle cx="5" cy="5" r="5" transform="translate(461 950)" fill="#fff"/><circle cx="5" cy="5" r="5" transform="translate(417 950)" fill="#fff"/><circle cx="5" cy="5" r="5" transform="translate(482 950)" fill="#fff"/><circle cx="5" cy="5" r="5" transform="translate(438 950)" fill="#fff"/><circle cx="5" cy="5" r="5" transform="translate(503 950)" fill="#fff"/></g><g transform="translate(-396 -927)"><circle cx="5" cy="5" r="5" transform="translate(396 950)" fill="#fff"/><circle cx="5" cy="5" r="5" transform="translate(461 950)" fill="#fff"/><circle cx="5" cy="5" r="5" transform="translate(417 950)" fill="#fff"/><circle cx="5" cy="5" r="5" transform="translate(482 950)" fill="#fff"/><circle cx="5" cy="5" r="5" transform="translate(438 950)" fill="#fff"/><circle cx="5" cy="5" r="5" transform="translate(503 950)" fill="#fff"/></g><g transform="translate(-396 -904)"><circle cx="5" cy="5" r="5" transform="translate(396 950)" fill="#fff"/><circle cx="5" cy="5" r="5" transform="translate(461 950)" fill="#fff"/><circle cx="5" cy="5" r="5" transform="translate(417 950)" fill="#fff"/><circle cx="5" cy="5" r="5" transform="translate(482 950)" fill="#fff"/><circle cx="5" cy="5" r="5" transform="translate(438 950)" fill="#fff"/><circle cx="5" cy="5" r="5" transform="translate(503 950)" fill="#fff"/></g><g transform="translate(-396 -881)"><circle cx="5" cy="5" r="5" transform="translate(396 950)" fill="#fff"/><circle cx="5" cy="5" r="5" transform="translate(461 950)" fill="#fff"/><circle cx="5" cy="5" r="5" transform="translate(417 950)" fill="#fff"/><circle cx="5" cy="5" r="5" transform="translate(482 950)" fill="#fff"/><circle cx="5" cy="5" r="5" transform="translate(438 950)" fill="#fff"/><circle cx="5" cy="5" r="5" transform="translate(503 950)" fill="#fff"/></g><g transform="translate(-396 -858)"><circle cx="5" cy="5" r="5" transform="translate(396 950)" fill="#fff"/><circle cx="5" cy="5" r="5" transform="translate(461 950)" fill="#fff"/><circle cx="5" cy="5" r="5" transform="translate(417 950)" fill="#fff"/><circle cx="5" cy="5" r="5" transform="translate(482 950)" fill="#fff"/><circle cx="5" cy="5" r="5" transform="translate(438 950)" fill="#fff"/><circle cx="5" cy="5" r="5" transform="translate(503 950)" fill="#fff"/></g><g transform="translate(-396 -835)"><circle cx="5" cy="5" r="5" transform="translate(396 950)" fill="#fff"/><circle cx="5" cy="5" r="5" transform="translate(461 950)" fill="#fff"/><circle cx="5" cy="5" r="5" transform="translate(417 950)" fill="#fff"/><circle cx="5" cy="5" r="5" transform="translate(482 950)" fill="#fff"/><circle cx="5" cy="5" r="5" transform="translate(438 950)" fill="#fff"/><circle cx="5" cy="5" r="5" transform="translate(503 950)" fill="#fff"/></g></g></svg>