<svg xmlns="http://www.w3.org/2000/svg" xmlns:xlink="http://www.w3.org/1999/xlink" width="117" height="88" viewBox="0 0 117 88"><defs><clipPath id="a"><rect width="117" height="88" fill="none"/></clipPath></defs><g opacity="0.65" clip-path="url(#a)"><g transform="translate(-396 -950)"><circle cx="5" cy="5" r="5" transform="translate(396 950)" fill="#fff"/><circle cx="5" cy="5" r="5" transform="translate(461 950)" fill="#fff"/><circle cx="5" cy="5" r="5" transform="translate(417 950)" fill="#fff"/><circle cx="5" cy="5" r="5" transform="translate(482 950)" fill="#fff"/><circle cx="5" cy="5" r="5" transform="translate(438 950)" fill="#fff"/><circle cx="5" cy="5" r="5" transform="translate(503 950)" fill="#fff"/></g><g transform="translate(-396 -931)"><circle cx="5" cy="5" r="5" transform="translate(396 950)" fill="#fff"/><circle cx="5" cy="5" r="5" transform="translate(461 950)" fill="#fff"/><circle cx="5" cy="5" r="5" transform="translate(417 950)" fill="#fff"/><circle cx="5" cy="5" r="5" transform="translate(482 950)" fill="#fff"/><circle cx="5" cy="5" r="5" transform="translate(438 950)" fill="#fff"/><circle cx="5" cy="5" r="5" transform="translate(503 950)" fill="#fff"/></g><g transform="translate(-396 -912)"><circle cx="5" cy="5" r="5" transform="translate(396 950)" fill="#fff"/><circle cx="5" cy="5" r="5" transform="translate(461 950)" fill="#fff"/><circle cx="5" cy="5" r="5" transform="translate(417 950)" fill="#fff"/><circle cx="5" cy="5" r="5" transform="translate(482 950)" fill="#fff"/><circle cx="5" cy="5" r="5" transform="translate(438 950)" fill="#fff"/><circle cx="5" cy="5" r="5" transform="translate(503 950)" fill="#fff"/></g><g transform="translate(-396 -893)"><circle cx="5" cy="5" r="5" transform="translate(396 950)" fill="#fff"/><circle cx="5" cy="5" r="5" transform="translate(461 950)" fill="#fff"/><circle cx="5" cy="5" r="5" transform="translate(417 950)" fill="#fff"/><circle cx="5" cy="5" r="5" transform="translate(482 950)" fill="#fff"/><circle cx="5" cy="5" r="5" transform="translate(438 950)" fill="#fff"/><circle cx="5" cy="5" r="5" transform="translate(503 950)" fill="#fff"/></g><g transform="translate(-396 -874)"><circle cx="5" cy="5" r="5" transform="translate(396 950)" fill="#fff"/><circle cx="5" cy="5" r="5" transform="translate(461 950)" fill="#fff"/><circle cx="5" cy="5" r="5" transform="translate(417 950)" fill="#fff"/><circle cx="5" cy="5" r="5" transform="translate(482 950)" fill="#fff"/><circle cx="5" cy="5" r="5" transform="translate(438 950)" fill="#fff"/><circle cx="5" cy="5" r="5" transform="translate(503 950)" fill="#fff"/></g></g></svg>