<svg width="27" height="22" viewBox="0 0 27 22" fill="none" xmlns="http://www.w3.org/2000/svg">
<path d="M26.9195 2.88872C25.9465 3.32479 24.9131 3.61105 23.8545 3.73776C24.9716 3.06038 25.805 2.00079 26.2002 0.75558C25.1546 1.38361 24.0083 1.82625 22.812 2.06397C22.3155 1.52707 21.7132 1.09872 21.0431 0.805865C20.373 0.513013 19.6496 0.361993 18.9183 0.362305C18.2141 0.366007 17.5175 0.508387 16.8683 0.781308C16.2191 1.05423 15.6301 1.45235 15.1348 1.95293C14.6395 2.45352 14.2476 3.04677 13.9816 3.6988C13.7156 4.35083 13.5806 5.04888 13.5844 5.75308C13.5839 6.16653 13.63 6.57872 13.7217 6.98186C11.5955 6.87156 9.51664 6.3127 7.6217 5.34197C5.72677 4.37125 4.05862 3.01062 2.72684 1.34946C2.04487 2.5364 1.83604 3.93701 2.14207 5.27127C2.44811 6.60552 3.24647 7.7751 4.37755 8.54619C3.52951 8.51944 2.70048 8.28826 1.96099 7.87229V7.94036C1.95644 9.17937 2.37975 10.382 3.15938 11.3449C3.93902 12.3079 5.02719 12.9722 6.24002 13.2257C5.78221 13.3519 5.3094 13.4155 4.8345 13.4147C4.49751 13.4148 4.16126 13.3831 3.83023 13.32C4.16566 14.386 4.82661 15.3202 5.72025 15.9913C6.61389 16.6624 7.69531 17.0367 8.81261 17.0616C7.70923 17.9375 6.44303 18.5857 5.08736 18.9687C3.73169 19.3518 2.31349 19.462 0.914917 19.2931C3.3482 20.8758 6.18889 21.7176 9.09164 21.716C18.9027 21.716 24.2689 13.5019 24.2689 6.37841C24.2689 6.14463 24.2634 5.91217 24.2525 5.68103C25.3003 4.91526 26.2034 3.96906 26.9195 2.88673V2.88872Z" fill="#000080"/>
</svg>
