<svg width="26" height="18" viewBox="0 0 26 18" fill="none" xmlns="http://www.w3.org/2000/svg">
<path fill-rule="evenodd" clip-rule="evenodd" d="M22.8312 0.82382C23.8968 1.11066 24.737 1.95088 25.024 3.01649C25.5568 4.96328 25.5363 9.0208 25.5363 9.0208C25.5363 9.0208 25.5363 13.0578 25.024 15.0046C24.737 16.0702 23.8968 16.9105 22.8312 17.1973C20.8844 17.7096 13.0973 17.7096 13.0973 17.7096C13.0973 17.7096 5.33059 17.7096 3.36332 17.1768C2.29771 16.8899 1.45753 16.0498 1.17064 14.9842C0.658325 13.0578 0.658325 9.00032 0.658325 9.00032C0.658325 9.00032 0.658325 4.96328 1.17064 3.01649C1.45753 1.95088 2.31819 1.09018 3.36332 0.803255C5.31011 0.291016 13.0973 0.291016 13.0973 0.291016C13.0973 0.291016 20.8844 0.291016 22.8312 0.82382ZM17.0933 9.00032L10.6177 12.73V5.27069L17.0933 9.00032Z" fill="#000080"/>
</svg>
