<svg xmlns="http://www.w3.org/2000/svg" viewBox="0 0 957.98 311.19"><defs><style>.cls-1{fill:#231f20;}.cls-2{fill:#030303;}.cls-3{fill:#89c147;}.cls-4{fill:#171717;}</style></defs><g id="Layer_2" data-name="Layer 2"><g id="Layer_1-2" data-name="Layer 1"><path class="cls-1" d="M268.42,239.82V211.63h3.41v24.86h12.68v3.33Z"/><path class="cls-1" d="M309.05,233.24l3.25.44a8.67,8.67,0,0,1-2.94,4.94,9.09,9.09,0,0,1-11.7-1q-2.45-2.7-2.45-7.8c0-3.53.83-6.21,2.48-8.07a8,8,0,0,1,6.26-2.78,7.75,7.75,0,0,1,6,2.73c1.61,1.83,2.42,4.46,2.42,7.91l0,.92H298.47a8.24,8.24,0,0,0,1.77,5.19,5,5,0,0,0,3.86,1.75C306.47,237.43,308.12,236,309.05,233.24Zm-10.39-5.59h10.41a7.33,7.33,0,0,0-1.27-4,4.73,4.73,0,0,0-3.87-1.9,4.79,4.79,0,0,0-3.62,1.59A6.51,6.51,0,0,0,298.66,227.65Z"/><path class="cls-1" d="M336.56,237.3a11.52,11.52,0,0,1-3.3,2.23,8.74,8.74,0,0,1-3.55.75,6.67,6.67,0,0,1-4.65-1.58,5.47,5.47,0,0,1-1.73-4.25,6,6,0,0,1,.81-3.13,5.81,5.81,0,0,1,2.23-2.14,12.66,12.66,0,0,1,4.28-1.13,26.3,26.3,0,0,0,5.66-1.21l0-.89a4.13,4.13,0,0,0-.84-2.94,4.79,4.79,0,0,0-3.62-1.23,5.46,5.46,0,0,0-3.3.82,5.22,5.22,0,0,0-1.6,3.08l-3.11-.46a7.57,7.57,0,0,1,2.69-4.79,9.6,9.6,0,0,1,5.79-1.5,9.07,9.07,0,0,1,4.61,1,4.42,4.42,0,0,1,2.11,2.46,15.79,15.79,0,0,1,.44,4.27v4.61a52.28,52.28,0,0,0,.2,6.11,8.58,8.58,0,0,0,.8,2.45h-3.3A8.15,8.15,0,0,1,336.56,237.3Zm-.25-7.73a22,22,0,0,1-5.17,1.31,10.54,10.54,0,0,0-2.78.7,2.88,2.88,0,0,0-1.23,1.11,3.18,3.18,0,0,0-.44,1.67,2.9,2.9,0,0,0,1,2.33,4.07,4.07,0,0,0,2.78.88,6,6,0,0,0,3.07-.79,5.18,5.18,0,0,0,2.07-2.11,8.42,8.42,0,0,0,.69-3.83Z"/><path class="cls-1" d="M364.61,239.82v-2.58a6,6,0,0,1-2.2,2.26,5.72,5.72,0,0,1-2.91.78,7.31,7.31,0,0,1-5.71-2.8c-1.61-1.86-2.41-4.49-2.41-7.87a14.69,14.69,0,0,1,1.07-5.91,8,8,0,0,1,2.85-3.59,7.09,7.09,0,0,1,4-1.18,6,6,0,0,1,2.9.74,6.43,6.43,0,0,1,2.21,2.07V211.63h3.19v28.19Zm-10-10.19q0,4,1.54,5.88a4.48,4.48,0,0,0,3.56,1.92,4.38,4.38,0,0,0,3.5-1.84,8.85,8.85,0,0,0,1.48-5.58c0-2.86-.5-4.94-1.48-6.26a4.51,4.51,0,0,0-3.73-2,4.22,4.22,0,0,0-3.43,1.89C355.09,224.94,354.61,226.92,354.61,229.63Z"/><path class="cls-1" d="M380.65,215.61v-4h3.15v4Zm0,24.21V219.4h3.15v20.42Z"/><path class="cls-1" d="M396.75,239.82V219.4h2.85v2.88a6.93,6.93,0,0,1,2.51-2.51,6.81,6.81,0,0,1,3.41-.84,7.19,7.19,0,0,1,2.77.53,5.75,5.75,0,0,1,2,1.39,5.46,5.46,0,0,1,1.17,2.22,16.52,16.52,0,0,1,.39,4.19v12.56h-3.15V227.38a9.38,9.38,0,0,0-.43-3.29,3.37,3.37,0,0,0-1.34-1.61,3.9,3.9,0,0,0-2.11-.57,4.59,4.59,0,0,0-3.62,1.53q-1.35,1.51-1.35,5.21v11.17Z"/><path class="cls-1" d="M424.25,241.51l3.08.5a3.47,3.47,0,0,0,1.29,2.45,4.88,4.88,0,0,0,3,.8,5.55,5.55,0,0,0,3.31-.89,4.56,4.56,0,0,0,1.68-2.67,22.43,22.43,0,0,0,.28-4.54,7.07,7.07,0,0,1-2.31,2,6,6,0,0,1-2.85.67,7.06,7.06,0,0,1-5.55-2.54,11.58,11.58,0,0,1-2.52-7.83,13.88,13.88,0,0,1,1.11-5.75,8.08,8.08,0,0,1,2.92-3.61,7.4,7.4,0,0,1,4.06-1.16,6.35,6.35,0,0,1,3,.73,7.06,7.06,0,0,1,2.41,2.18V219.4h2.91v17.65a18.79,18.79,0,0,1-.85,6.72,6.64,6.64,0,0,1-2.81,3.17,8.94,8.94,0,0,1-4.69,1.17,8.1,8.1,0,0,1-5.57-1.75A6,6,0,0,1,424.25,241.51Zm2.61-12.27c0,2.69.5,4.65,1.48,5.88A4.48,4.48,0,0,0,432,237a4.58,4.58,0,0,0,3.65-1.81q1.5-1.82,1.5-5.76c0-2.57-.52-4.49-1.55-5.74a4.7,4.7,0,0,0-3.75-1.88,4.37,4.37,0,0,0-3.47,1.88A8.87,8.87,0,0,0,426.86,229.24Z"/><path class="cls-1" d="M478.13,236.72l.42,3.06a10.63,10.63,0,0,1-2.35.31,5.27,5.27,0,0,1-2.66-.59,3,3,0,0,1-1.38-1.6,14.16,14.16,0,0,1-.37-4.06V222.09h-2.32V219.4h2.32v-5.06l3.15-2.08v7.14h3.19v2.69h-3.19V234a5.23,5.23,0,0,0,.27,2.13,1.6,1.6,0,0,0,1.52.7A9.62,9.62,0,0,0,478.13,236.72Z"/><path class="cls-1" d="M489.22,239.82V211.63h3.14v10.11a7.61,7.61,0,0,1,2.52-2.1,6.83,6.83,0,0,1,3.1-.71,6.39,6.39,0,0,1,4.7,1.71q1.72,1.7,1.72,6.24v12.94h-3.15V226.88a5.6,5.6,0,0,0-1.05-3.81,3.71,3.71,0,0,0-2.89-1.16,4.7,4.7,0,0,0-3.5,1.49c-1,1-1.45,2.73-1.45,5.25v11.17Z"/><path class="cls-1" d="M517.33,239.82V219.4h2.85v3.09a8.74,8.74,0,0,1,2-2.85,3.27,3.27,0,0,1,2.05-.71,5.81,5.81,0,0,1,3.23,1.12l-1.07,3.21a4.26,4.26,0,0,0-2.29-.75,2.92,2.92,0,0,0-1.84.64,3.35,3.35,0,0,0-1.18,1.76,14.54,14.54,0,0,0-.6,4.22v10.69Z"/><path class="cls-1" d="M536.22,229.61q0-5.3,2.47-8a8.58,8.58,0,0,1,12.5,0q2.5,2.69,2.5,7.77,0,5.49-2.46,8.19a8.62,8.62,0,0,1-12.52,0Q536.22,234.88,536.22,229.61Zm3.23,0q0,4,1.61,5.9a5,5,0,0,0,4,1.93,4.78,4.78,0,0,0,3.82-2q1.6-1.95,1.6-5.88t-1.61-5.89a5,5,0,0,0-4-1.93,4.79,4.79,0,0,0-3.83,1.94Q539.45,225.67,539.45,229.6Z"/><path class="cls-1" d="M577.74,239.82v-3a7.58,7.58,0,0,1-2.57,2.59,6.45,6.45,0,0,1-3.34.87,6.53,6.53,0,0,1-3.77-1.07,5.14,5.14,0,0,1-2.09-2.7,15.15,15.15,0,0,1-.52-4.46V219.4h3.15v11.32a15.92,15.92,0,0,0,.35,4.22,3.22,3.22,0,0,0,1.31,1.71,3.78,3.78,0,0,0,2.17.65,4.74,4.74,0,0,0,3.73-1.67c.82-1,1.24-2.73,1.24-5.29V219.4h3.17v20.42Z"/><path class="cls-1" d="M593,241.51l3.08.5a3.47,3.47,0,0,0,1.29,2.45,4.88,4.88,0,0,0,3,.8,5.55,5.55,0,0,0,3.31-.89,4.56,4.56,0,0,0,1.68-2.67,22.43,22.43,0,0,0,.28-4.54,7.07,7.07,0,0,1-2.31,2,6,6,0,0,1-2.85.67,7,7,0,0,1-5.54-2.54,11.54,11.54,0,0,1-2.53-7.83,13.88,13.88,0,0,1,1.11-5.75,8.08,8.08,0,0,1,2.92-3.61,7.4,7.4,0,0,1,4.06-1.16,6.32,6.32,0,0,1,3,.73,7.06,7.06,0,0,1,2.41,2.18V219.4h2.91v17.65a18.79,18.79,0,0,1-.85,6.72,6.64,6.64,0,0,1-2.81,3.17,8.94,8.94,0,0,1-4.69,1.17,8.1,8.1,0,0,1-5.57-1.75A6,6,0,0,1,593,241.51Zm2.61-12.27c0,2.69.5,4.65,1.48,5.88a4.48,4.48,0,0,0,3.63,1.85,4.58,4.58,0,0,0,3.65-1.81q1.5-1.82,1.5-5.76c0-2.57-.52-4.49-1.54-5.74a4.74,4.74,0,0,0-3.76-1.88,4.37,4.37,0,0,0-3.47,1.88A8.87,8.87,0,0,0,595.64,229.24Z"/><path class="cls-1" d="M621.77,239.82V211.63h3.14v10.11a7.61,7.61,0,0,1,2.52-2.1,6.83,6.83,0,0,1,3.1-.71,6.39,6.39,0,0,1,4.7,1.71q1.72,1.7,1.72,6.24v12.94H633.8V226.88a5.6,5.6,0,0,0-1-3.81,3.71,3.71,0,0,0-2.89-1.16,4.7,4.7,0,0,0-3.5,1.49c-1,1-1.45,2.73-1.45,5.25v11.17Z"/><path class="cls-1" d="M669.09,239.82V211.63h3.41v28.19Z"/><path class="cls-1" d="M686.11,239.82V219.4H689v2.88a6.93,6.93,0,0,1,2.51-2.51,6.81,6.81,0,0,1,3.41-.84,7.19,7.19,0,0,1,2.77.53,5.75,5.75,0,0,1,2.05,1.39,5.46,5.46,0,0,1,1.17,2.22,16.61,16.61,0,0,1,.38,4.19v12.56h-3.14V227.38a9.38,9.38,0,0,0-.43-3.29,3.37,3.37,0,0,0-1.34-1.61,3.9,3.9,0,0,0-2.11-.57,4.59,4.59,0,0,0-3.62,1.53q-1.35,1.51-1.35,5.21v11.17Z"/><path class="cls-1" d="M714.23,239.82V219.4h2.85v2.88a6.57,6.57,0,0,1,5.92-3.35,7.19,7.19,0,0,1,2.77.53,5.75,5.75,0,0,1,2.05,1.39,5.46,5.46,0,0,1,1.17,2.22,17.1,17.1,0,0,1,.38,4.19v12.56h-3.15V227.38a9.15,9.15,0,0,0-.43-3.29,3.36,3.36,0,0,0-1.33-1.61,3.9,3.9,0,0,0-2.11-.57,4.58,4.58,0,0,0-3.62,1.53q-1.35,1.51-1.35,5.21v11.17Z"/><path class="cls-1" d="M741.15,229.61q0-5.3,2.47-8a8.58,8.58,0,0,1,12.5,0q2.5,2.69,2.5,7.77,0,5.49-2.46,8.19a8.62,8.62,0,0,1-12.52,0Q741.15,234.88,741.15,229.61Zm3.23,0q0,4,1.61,5.9a5,5,0,0,0,4,1.93,4.79,4.79,0,0,0,3.82-2q1.61-1.95,1.6-5.88t-1.61-5.89a5,5,0,0,0-4-1.93,4.82,4.82,0,0,0-3.84,1.94Q744.39,225.67,744.38,229.6Z"/><path class="cls-1" d="M775.67,239.82l-7.09-20.42h3.34l4,12.23q.69,2.07,1.2,4.11c.27-1.08.66-2.37,1.16-3.88l4.16-12.46h3.26l-7.09,20.42Z"/><path class="cls-1" d="M808.71,237.3a11.8,11.8,0,0,1-3.3,2.23,8.78,8.78,0,0,1-3.56.75,6.62,6.62,0,0,1-4.64-1.58,5.44,5.44,0,0,1-1.74-4.25,5.92,5.92,0,0,1,.82-3.13,5.78,5.78,0,0,1,2.22-2.14,12.73,12.73,0,0,1,4.29-1.13,26.18,26.18,0,0,0,5.65-1.21l0-.89a4.18,4.18,0,0,0-.83-2.94,4.82,4.82,0,0,0-3.62-1.23,5.46,5.46,0,0,0-3.3.82,5.23,5.23,0,0,0-1.61,3.08l-3.1-.46a7.56,7.56,0,0,1,2.68-4.79,9.63,9.63,0,0,1,5.8-1.5,9,9,0,0,1,4.6,1,4.35,4.35,0,0,1,2.11,2.46,15.79,15.79,0,0,1,.44,4.27v4.61a54.78,54.78,0,0,0,.2,6.11,8.6,8.6,0,0,0,.81,2.45h-3.3A7.88,7.88,0,0,1,808.71,237.3Zm-.26-7.73a22,22,0,0,1-5.16,1.31,10.53,10.53,0,0,0-2.79.7,3,3,0,0,0-1.23,1.11,3.18,3.18,0,0,0-.44,1.67,2.93,2.93,0,0,0,1,2.33,4.07,4.07,0,0,0,2.78.88,6.06,6.06,0,0,0,3.08-.79,5.18,5.18,0,0,0,2.07-2.11,8.57,8.57,0,0,0,.68-3.83Z"/><path class="cls-1" d="M831.7,236.72l.43,3.06a10.63,10.63,0,0,1-2.35.31,5.27,5.27,0,0,1-2.66-.59,3,3,0,0,1-1.38-1.6,14.16,14.16,0,0,1-.37-4.06V222.09h-2.32V219.4h2.32v-5.06l3.14-2.08v7.14h3.19v2.69h-3.19V234a5.18,5.18,0,0,0,.28,2.13,1.6,1.6,0,0,0,1.52.7A9.38,9.38,0,0,0,831.7,236.72Z"/><path class="cls-1" d="M842.8,215.61v-4h3.14v4Zm0,24.21V219.4h3.14v20.42Z"/><path class="cls-1" d="M857.7,229.61q0-5.3,2.47-8a8.58,8.58,0,0,1,12.5,0q2.51,2.69,2.5,7.77,0,5.49-2.46,8.19a8.62,8.62,0,0,1-12.52,0Q857.7,234.88,857.7,229.61Zm3.23,0q0,4,1.61,5.9a5,5,0,0,0,4,1.93,4.78,4.78,0,0,0,3.82-2q1.6-1.95,1.6-5.88t-1.61-5.89a5,5,0,0,0-4-1.93,4.79,4.79,0,0,0-3.83,1.94Q860.93,225.67,860.93,229.6Z"/><path class="cls-1" d="M887,239.82V219.4h2.85v2.88a6.93,6.93,0,0,1,2.51-2.51,6.81,6.81,0,0,1,3.41-.84,7.19,7.19,0,0,1,2.77.53,5.75,5.75,0,0,1,2.05,1.39,5.46,5.46,0,0,1,1.17,2.22,16.61,16.61,0,0,1,.38,4.19v12.56H899V227.38a9.38,9.38,0,0,0-.43-3.29,3.37,3.37,0,0,0-1.34-1.61,3.9,3.9,0,0,0-2.11-.57,4.59,4.59,0,0,0-3.62,1.53q-1.35,1.51-1.35,5.21v11.17Z"/><path class="cls-2" d="M269.24,184.15V88.35h68.48v16.21H287.89V125.8h46.36v16.13H287.89V168h51.59v16.14Z"/><path class="cls-2" d="M414.38,148.93l18.08,5.94q-4.15,15.69-13.83,23.3t-24.53,7.61q-18.41,0-30.24-13T352,137.1q0-23.91,11.9-37.15t31.31-13.23q16.95,0,27.53,10.39,6.3,6.14,9.45,17.64l-18.46,4.58a20.48,20.48,0,0,0-6.83-11.77,19.17,19.17,0,0,0-12.63-4.31,20.7,20.7,0,0,0-16.67,7.65q-6.39,7.63-6.39,24.76,0,18.17,6.3,25.88a20.16,20.16,0,0,0,16.38,7.71,18.34,18.34,0,0,0,12.79-4.9Q412.05,159.45,414.38,148.93Z"/><path class="cls-2" d="M448.52,184.15V88.35h18.65v37.71h36.54V88.35h18.65v95.8H503.71V142.26H467.17v41.89Z"/><path class="cls-2" d="M541.63,184.15V88.35h68.48v16.21H560.28V125.8h46.36v16.13H560.28V168h51.59v16.14Z"/><path class="cls-3" d="M628.19,184.15v-95h18.64V168H693.2v16.14Z"/><path class="cls-3" d="M702.71,136.84q0-14.64,4.22-24.57a45.32,45.32,0,0,1,8.6-13.14,35.94,35.94,0,0,1,11.94-8.62,49,49,0,0,1,19.9-3.79q20.42,0,32.67,13.13t12.25,36.53q0,23.2-12.16,36.3t-32.5,13.1q-20.61,0-32.76-13T702.71,136.84Zm19.21-.66q0,16.27,7.25,24.67a24.3,24.3,0,0,0,36.69.07q7.15-8.34,7.15-25,0-16.45-7-24.57t-18.49-8.1q-11.52,0-18.58,8.2T721.92,136.18Z"/><path class="cls-3" d="M807,184.15V88.35h18.14l37.8,64v-64h17.32v95.8H861.58l-37.22-62.47v62.47Z"/><path class="cls-4" d="M918.23,62.84h39.06V86h-4.61V67.07H940.75V84.79h-4.61V67.07h-13.3V86.73h-4.61Z"/><path class="cls-4" d="M918.23,92.49h39.06v11.05a20.59,20.59,0,0,1-.72,6.24,10.63,10.63,0,0,1-3.41,4.85,17.77,17.77,0,0,1-6.25,3.19A30.64,30.64,0,0,1,938,119a28.94,28.94,0,0,1-11.26-2,13.67,13.67,0,0,1-6.55-5,14.69,14.69,0,0,1-1.94-8Zm4.61,4.23v6.82a11.78,11.78,0,0,0,1.35,6.26,8.44,8.44,0,0,0,4.33,3.28A26.64,26.64,0,0,0,938,114.6a22.27,22.27,0,0,0,9.34-1.61,8.87,8.87,0,0,0,4.54-4.14,14.1,14.1,0,0,0,.77-5.41V96.72Z"/><path class="cls-4" d="M933.55,140h4.61l0,13.56H923.67a23.16,23.16,0,0,1-4.57-6.44,16.26,16.26,0,0,1-1.53-6.85,15.25,15.25,0,0,1,2.34-8.37,16.08,16.08,0,0,1,6.86-5.82,25,25,0,0,1,10.82-2.14,26.64,26.64,0,0,1,11.14,2.16,15.74,15.74,0,0,1,7,5.64A14.92,14.92,0,0,1,958,140a13.73,13.73,0,0,1-1.3,6.16,11.59,11.59,0,0,1-3.7,4.34A17.35,17.35,0,0,1,946.4,153l-1.28-3.81a14.35,14.35,0,0,0,4.94-2,8,8,0,0,0,2.57-3.09,9.77,9.77,0,0,0,.93-4.31,10.5,10.5,0,0,0-1.69-6,11.65,11.65,0,0,0-5.27-4,22.14,22.14,0,0,0-8.72-1.53q-7.83,0-11.74,3.27a10.6,10.6,0,0,0-3.91,8.53,12.29,12.29,0,0,0,1.2,5.13,13.08,13.08,0,0,0,2.85,4.17h7.27Z"/><path class="cls-4" d="M918.23,159.78h39.06v23.15h-4.61V164H940.75v17.72h-4.61V164h-13.3v19.66h-4.61Z"/><rect class="cls-2" x="627.15" y="62.57" width="276.02" height="5.73"/><rect class="cls-2" x="839.51" y="120.48" width="121.6" height="5.73" transform="translate(1023.65 -776.96) rotate(90)"/><rect class="cls-1" x="36.89" y="139.25" width="170" height="34.53"/><path class="cls-1" d="M0,82.6s35.27-55.49,113-39c59.25,17.11,77,61.09,77,61.09S148.16,61.34,99.17,76.4c-60.8,24.19-55.49,78.79-55.49,78.79s-7.11,66.07,62.87,82.34c56.07,9.15,82-31.57,82-31.57s-17.7,54.58-93.56,66.4c-14.47.51-70.38,1.77-95-44.27,0,0,37.19,38.08,93,26.57,3.38-.7-60.5-7.38-82.35-80.87C10.33,172.43-10.55,89.31,92.38,59,43.24,43.27,0,82.6,0,82.6Z"/><path class="cls-3" d="M39.7,33.75l.39-.35C46.88,27.43,141-51.4,254,56.33c-3.8,3.94-14.79,11.81-45.16,46.92C155.54-7.72,39.7,33.75,39.7,33.75Z"/><path class="cls-3" d="M39.7,277.44l.39.35c6.79,6,100.89,84.8,213.88-22.93-3.8-3.94-14.79-11.81-45.16-46.93C155.54,318.91,39.7,277.44,39.7,277.44Z"/></g></g></svg>